<?xml version="1.0" standalone="no"?>
<!DOCTYPE svg PUBLIC "-//W3C//DTD SVG 20010904//EN"
 "http://www.w3.org/TR/2001/REC-SVG-20010904/DTD/svg10.dtd">
<svg version="1.0" xmlns="http://www.w3.org/2000/svg"
 width="700.000000pt" height="700.000000pt" viewBox="0 0 700.000000 700.000000"
 preserveAspectRatio="xMidYMid meet">
<metadata>
Created by potrace 1.14, written by Peter Selinger 2001-2017
</metadata>
<g transform="translate(0.000000,700.000000) scale(0.100000,-0.100000)"
fill="#000000" stroke="none">
<path d="M3335 6993 c-1079 -53 -2059 -591 -2692 -1478 -344 -482 -562 -1068
-624 -1680 -15 -154 -15 -516 0 -670 124 -1216 851 -2267 1936 -2800 385 -189
750 -294 1205 -346 157 -18 557 -15 725 5 798 97 1483 420 2048 965 1079 1043
1370 2666 722 4017 -181 377 -385 666 -684 964 -301 301 -588 505 -965 685
-517 248 -1101 366 -1671 338z m515 -2318 l0 -465 470 0 470 0 0 -1175 0
-1175 -1290 0 -1290 0 0 1640 0 1640 820 0 820 0 0 -465z m510 30 l365 -365
-373 0 -372 0 0 365 c0 201 3 365 8 365 4 0 171 -164 372 -365z"/>
<path d="M3042 3568 l-203 -203 -82 88 c-45 48 -87 87 -92 87 -6 0 -31 -20
-55 -45 l-45 -46 140 -134 140 -134 250 250 250 249 -45 45 c-24 25 -47 45
-50 45 -3 0 -96 -91 -208 -202z"/>
<path d="M3460 3395 l0 -65 459 0 c516 0 471 -8 471 81 l0 49 -465 0 -465 0 0
-65z"/>
<path d="M3042 2688 l-203 -203 -80 88 c-45 48 -86 87 -93 87 -6 0 -32 -20
-56 -45 l-45 -46 140 -134 140 -134 250 250 250 249 -45 45 c-24 25 -47 45
-50 45 -3 0 -96 -91 -208 -202z"/>
<path d="M3460 2515 l0 -65 459 0 c516 0 471 -8 471 81 l0 49 -465 0 -465 0 0
-65z"/>
</g>
</svg>
